<svg width="24" height="24" version="1.1" viewBox="0 0 24 24" xmlns="http://www.w3.org/2000/svg"><defs><style id="current-color-scheme" type="text/css">.ColorScheme-Text {
        color:#232629;
      }</style></defs><g transform="translate(1,1)"><path d="m4.1711 5.4201c-0.31157 0-0.61075 0.12391-0.83106 0.34422s-0.34422 0.5195-0.34422 0.83107 0.12391 0.61075 0.34422 0.83106c0.06292 0.06292 0.13281 0.11695 0.20704 0.1635v8.6012c-0.074237 0.04656-0.14412 0.10058-0.20704 0.1635-0.22031 0.22032-0.34422 0.5195-0.34422 0.83107s0.12391 0.61075 0.34422 0.83106 0.5195 0.34422 0.83106 0.34422c0.31157 0 0.61075-0.12391 0.83106-0.34422s0.34422-0.51949 0.34422-0.83106-0.12391-0.61075-0.34422-0.83107c-0.093239-0.09324-0.20122-0.16797-0.31767-0.2246v-2.2805l4.0564-2.3419v-3.5545l-0.96446-0.96447c0.044566-0.12528 0.069312-0.25789 0.069312-0.39332 0-0.31157-0.12391-0.61075-0.34422-0.83107-0.22031-0.22031-0.5195-0.34422-0.83107-0.34422s-0.61075 0.12391-0.83106 0.34422-0.34422 0.5195-0.34422 0.83107 0.12391 0.61075 0.34422 0.83106 0.5195 0.34422 0.83106 0.34422c0.085227 0 0.16935-0.010119 0.25136-0.028098l0.68167 0.68167v2.4268l-2.9189 1.6852v-4.8852c0.11645-0.056624 0.22444-0.13135 0.31767-0.2246 0.22031-0.22031 0.34422-0.5195 0.34422-0.83106 0-0.31157-0.12391-0.61075-0.34422-0.83107-0.22031-0.22031-0.5195-0.34422-0.83106-0.34422zm6.0692 0c-0.31157 0-0.61075 0.12391-0.83107 0.34422-0.22031 0.22031-0.34423 0.5195-0.34423 0.83107s0.12391 0.61075 0.34423 0.83106c0.11216 0.11217 0.24493 0.19891 0.38921 0.25747v6.298l3.6701-2.119v1.979l4.8798-2.7778v-3.4479c0.09093-0.051646 0.17581-0.11462 0.25102-0.18983 0.22032-0.22031 0.34423-0.5195 0.34423-0.83106 0-0.31157-0.12391-0.61075-0.34423-0.83107-0.2203-0.22031-0.5195-0.34422-0.83107-0.34422-0.31156 0-0.61074 0.12391-0.83106 0.34422-0.2203 0.22031-0.34422 0.5195-0.34422 0.83107s0.12392 0.61075 0.34422 0.83106c0.08149 0.081496 0.17398 0.14955 0.27369 0.20327v2.7731l-2.6049 1.483v-4.2877c0.07932-0.04827 0.1539-0.10491 0.22059-0.17161 0.22031-0.22031 0.34422-0.5195 0.34422-0.83106 0-0.31157-0.12391-0.61075-0.34422-0.83107-0.22031-0.22031-0.5195-0.34422-0.83106-0.34422s-0.61064 0.12391-0.83096 0.34422c-0.2203 0.22031-0.34433 0.5195-0.34433 0.83107s0.12402 0.61075 0.34433 0.83106c0.08963 0.089637 0.19275 0.16228 0.30402 0.21815v2.9048l-2.5327 1.4623v-4.4692c0.04773-0.035048 0.09314-0.073697 0.13551-0.11607 0.22031-0.22031 0.34422-0.5195 0.34422-0.83106 0-0.31157-0.12391-0.61075-0.34422-0.83107-0.22031-0.22031-0.5195-0.34422-0.83106-0.34422zm-6.0692 0.71088c0.1233 0 0.24115 0.048769 0.32834 0.13596 0.087187 0.08719 0.13607 0.20515 0.13607 0.32845s-0.04888 0.24115-0.13607 0.32834c-0.087187 0.08719-0.20504 0.13607-0.32834 0.13607s-0.24115-0.048878-0.32834-0.13607c-0.087188-0.087188-0.13607-0.20504-0.13607-0.32834s0.048879-0.24126 0.13607-0.32845c0.087189-0.087187 0.20504-0.13596 0.32834-0.13596zm2.4993 0c0.1233 0 0.24115 0.048769 0.32834 0.13596 0.087187 0.08719 0.13607 0.20515 0.13607 0.32845s-0.048881 0.24115-0.13607 0.32834c-0.087187 0.08719-0.20504 0.13607-0.32834 0.13607s-0.24115-0.048878-0.32834-0.13607c-0.08719-0.087188-0.13607-0.20504-0.13607-0.32834s0.048878-0.24126 0.13607-0.32845c0.087187-0.087187 0.20503-0.13596 0.32834-0.13596zm3.5699 0c0.1233 0 0.24114 0.048769 0.32834 0.13596 0.08718 0.08719 0.13606 0.20515 0.13606 0.32845s-0.04887 0.24115-0.13606 0.32834-0.20504 0.13607-0.32834 0.13607c-0.12331 0-0.24115-0.048878-0.32835-0.13607-0.087181-0.087188-0.13606-0.20504-0.13606-0.32834s0.048876-0.24126 0.13606-0.32845c0.087192-0.087187 0.20504-0.13596 0.32835-0.13596zm3.7552 0c0.12329 0 0.24126 0.048769 0.32844 0.13596 0.08718 0.08719 0.13597 0.20515 0.13597 0.32845s-0.04877 0.24115-0.13597 0.32834c-0.08718 0.08719-0.20514 0.13607-0.32844 0.13607s-0.24116-0.048878-0.32834-0.13607c-0.08718-0.087188-0.13606-0.20504-0.13606-0.32834s0.04887-0.24126 0.13606-0.32845c0.08718-0.087187 0.20504-0.13596 0.32834-0.13596zm3.7728 0c0.12331 0 0.24126 0.048769 0.32847 0.13596 0.08718 0.08719 0.13594 0.20515 0.13594 0.32845s-0.04875 0.24115-0.13594 0.32834c-0.0872 0.08719-0.20516 0.13607-0.32847 0.13607-0.12329 0-0.24113-0.048878-0.32834-0.13607-0.08719-0.087188-0.13606-0.20504-0.13606-0.32834s0.04886-0.24126 0.13606-0.32845c0.08719-0.087187 0.20504-0.13596 0.32834-0.13596zm-13.597 10.59c0.1233 0 0.24115 0.04889 0.32834 0.13608 0.087187 0.08719 0.13607 0.20504 0.13607 0.32834s-0.04888 0.24115-0.13607 0.32834c-0.087187 0.08719-0.20504 0.13606-0.32834 0.13606s-0.24115-0.04887-0.32834-0.13606c-0.087188-0.08718-0.13607-0.20503-0.13607-0.32834 0-0.1233 0.048879-0.24115 0.13607-0.32834 0.087189-0.08717 0.20504-0.13608 0.32834-0.13608z" class="ColorScheme-Text" fill="currentColor"/></g></svg>
